<mxfile host="app.diagrams.net" modified="2020-10-31T20:30:18.317Z" agent="5.0 (Windows NT 10.0; Win64; x64) AppleWebKit/537.36 (KHTML, like Gecko) Chrome/86.0.4240.111 Safari/537.36" etag="AB47jMGckHWngY0teX9R" version="13.8.8" type="github">
  <diagram id="aR4KVEV9dx2AhkK6pfXo" name="Page-1">
    <mxGraphModel dx="881" dy="664" grid="1" gridSize="10" guides="1" tooltips="1" connect="1" arrows="1" fold="1" page="1" pageScale="1" pageWidth="850" pageHeight="1100" math="0" shadow="0">
      <root>
        <mxCell id="0" />
        <mxCell id="1" parent="0" />
        <mxCell id="eB0HgLbgzuCoMFJ23nCr-1" value="Start&amp;nbsp;" style="ellipse;whiteSpace=wrap;html=1;fillColor=#fff2cc;strokeColor=#d6b656;" vertex="1" parent="1">
          <mxGeometry x="30" y="50" width="80" height="40" as="geometry" />
        </mxCell>
        <mxCell id="eB0HgLbgzuCoMFJ23nCr-5" value="" style="endArrow=classic;html=1;entryX=0;entryY=0.5;entryDx=0;entryDy=0;exitX=1;exitY=0.5;exitDx=0;exitDy=0;" edge="1" parent="1" source="eB0HgLbgzuCoMFJ23nCr-19">
          <mxGeometry width="50" height="50" relative="1" as="geometry">
            <mxPoint x="220" y="110" as="sourcePoint" />
            <mxPoint x="410" y="108.71000000000004" as="targetPoint" />
            <Array as="points">
              <mxPoint x="330" y="110" />
              <mxPoint x="400" y="110" />
            </Array>
          </mxGeometry>
        </mxCell>
        <mxCell id="eB0HgLbgzuCoMFJ23nCr-8" value="Give the information" style="text;html=1;strokeColor=none;fillColor=none;align=center;verticalAlign=middle;whiteSpace=wrap;rounded=0;" vertex="1" parent="1">
          <mxGeometry x="230" y="90" width="150" height="20" as="geometry" />
        </mxCell>
        <mxCell id="eB0HgLbgzuCoMFJ23nCr-9" value="" style="endArrow=classic;html=1;exitX=0.346;exitY=0.988;exitDx=0;exitDy=0;exitPerimeter=0;entryX=1;entryY=0;entryDx=0;entryDy=0;" edge="1" parent="1" target="eB0HgLbgzuCoMFJ23nCr-10">
          <mxGeometry width="50" height="50" relative="1" as="geometry">
            <mxPoint x="454.98" y="147.75" as="sourcePoint" />
            <mxPoint x="447.41357220644454" y="206.00969443317456" as="targetPoint" />
          </mxGeometry>
        </mxCell>
        <mxCell id="eB0HgLbgzuCoMFJ23nCr-10" value="Transactions" style="rounded=1;whiteSpace=wrap;html=1;fillColor=#dae8fc;strokeColor=#6c8ebf;" vertex="1" parent="1">
          <mxGeometry x="110" y="230" width="130" height="50" as="geometry" />
        </mxCell>
        <mxCell id="eB0HgLbgzuCoMFJ23nCr-18" value="Check the information" style="text;html=1;strokeColor=none;fillColor=none;align=center;verticalAlign=middle;whiteSpace=wrap;rounded=0;rotation=-20;" vertex="1" parent="1">
          <mxGeometry x="270" y="170" width="129.81" height="21.34" as="geometry" />
        </mxCell>
        <mxCell id="eB0HgLbgzuCoMFJ23nCr-19" value="&lt;span&gt;Customer&lt;/span&gt;" style="ellipse;whiteSpace=wrap;html=1;fillColor=#dae8fc;strokeColor=#6c8ebf;" vertex="1" parent="1">
          <mxGeometry x="100" y="70" width="120" height="80" as="geometry" />
        </mxCell>
        <mxCell id="eB0HgLbgzuCoMFJ23nCr-21" value="&lt;span&gt;information&lt;/span&gt;" style="rounded=1;whiteSpace=wrap;html=1;fillColor=#dae8fc;strokeColor=#6c8ebf;" vertex="1" parent="1">
          <mxGeometry x="410" y="80" width="120" height="60" as="geometry" />
        </mxCell>
        <mxCell id="eB0HgLbgzuCoMFJ23nCr-23" value="Properties" style="rounded=1;whiteSpace=wrap;html=1;fillColor=#dae8fc;strokeColor=#6c8ebf;" vertex="1" parent="1">
          <mxGeometry x="380" y="230" width="130" height="50" as="geometry" />
        </mxCell>
        <mxCell id="eB0HgLbgzuCoMFJ23nCr-24" value="" style="endArrow=classic;html=1;exitX=1;exitY=0.5;exitDx=0;exitDy=0;entryX=0;entryY=0.5;entryDx=0;entryDy=0;" edge="1" parent="1" source="eB0HgLbgzuCoMFJ23nCr-10" target="eB0HgLbgzuCoMFJ23nCr-23">
          <mxGeometry width="50" height="50" relative="1" as="geometry">
            <mxPoint x="280" y="280" as="sourcePoint" />
            <mxPoint x="330" y="230" as="targetPoint" />
          </mxGeometry>
        </mxCell>
        <mxCell id="eB0HgLbgzuCoMFJ23nCr-25" value="Give the property" style="text;html=1;strokeColor=none;fillColor=none;align=center;verticalAlign=middle;whiteSpace=wrap;rounded=0;" vertex="1" parent="1">
          <mxGeometry x="270" y="230" width="100" height="20" as="geometry" />
        </mxCell>
        <mxCell id="eB0HgLbgzuCoMFJ23nCr-26" value="Manager" style="ellipse;whiteSpace=wrap;html=1;fillColor=#dae8fc;strokeColor=#6c8ebf;" vertex="1" parent="1">
          <mxGeometry x="100" y="350" width="140" height="70" as="geometry" />
        </mxCell>
        <mxCell id="eB0HgLbgzuCoMFJ23nCr-28" value="Show every important information example the price and location&amp;nbsp;" style="text;html=1;strokeColor=#82b366;fillColor=#d5e8d4;align=center;verticalAlign=middle;whiteSpace=wrap;rounded=0;labelBorderColor=#000000;" vertex="1" parent="1">
          <mxGeometry x="560" y="191.34" width="180" height="40" as="geometry" />
        </mxCell>
        <mxCell id="eB0HgLbgzuCoMFJ23nCr-29" value="Staff" style="ellipse;whiteSpace=wrap;html=1;fillColor=#dae8fc;strokeColor=#6c8ebf;" vertex="1" parent="1">
          <mxGeometry x="365" y="330" width="90" height="40" as="geometry" />
        </mxCell>
        <mxCell id="eB0HgLbgzuCoMFJ23nCr-30" value="Transactions" style="ellipse;whiteSpace=wrap;html=1;fillColor=#dae8fc;strokeColor=#6c8ebf;" vertex="1" parent="1">
          <mxGeometry x="365" y="400" width="85" height="40" as="geometry" />
        </mxCell>
        <mxCell id="eB0HgLbgzuCoMFJ23nCr-35" value="" style="line;strokeWidth=4;html=1;perimeter=backbonePerimeter;points=[];outlineConnect=0;" vertex="1" parent="1">
          <mxGeometry x="239.81" y="380" width="50.19" height="10" as="geometry" />
        </mxCell>
        <mxCell id="eB0HgLbgzuCoMFJ23nCr-36" value="" style="shape=partialRectangle;whiteSpace=wrap;html=1;bottom=1;right=1;left=1;top=0;fillColor=none;routingCenterX=-0.5;rotation=90;" vertex="1" parent="1">
          <mxGeometry x="295" y="350" width="70" height="70" as="geometry" />
        </mxCell>
        <mxCell id="eB0HgLbgzuCoMFJ23nCr-37" value="Make sure about the data is entered correct or not." style="rounded=0;whiteSpace=wrap;html=1;fillColor=#dae8fc;strokeColor=#6c8ebf;" vertex="1" parent="1">
          <mxGeometry x="550" y="350" width="160" height="60" as="geometry" />
        </mxCell>
        <mxCell id="eB0HgLbgzuCoMFJ23nCr-38" value="" style="endArrow=none;html=1;exitX=1;exitY=0.5;exitDx=0;exitDy=0;" edge="1" parent="1" source="eB0HgLbgzuCoMFJ23nCr-29">
          <mxGeometry width="50" height="50" relative="1" as="geometry">
            <mxPoint x="500" y="430" as="sourcePoint" />
            <mxPoint x="550" y="380" as="targetPoint" />
          </mxGeometry>
        </mxCell>
        <mxCell id="eB0HgLbgzuCoMFJ23nCr-39" value="" style="endArrow=none;html=1;exitX=1;exitY=0.5;exitDx=0;exitDy=0;" edge="1" parent="1" source="eB0HgLbgzuCoMFJ23nCr-30">
          <mxGeometry width="50" height="50" relative="1" as="geometry">
            <mxPoint x="500" y="430" as="sourcePoint" />
            <mxPoint x="550" y="380" as="targetPoint" />
          </mxGeometry>
        </mxCell>
        <mxCell id="eB0HgLbgzuCoMFJ23nCr-41" value="" style="curved=1;endArrow=classic;html=1;" edge="1" parent="1">
          <mxGeometry width="50" height="50" relative="1" as="geometry">
            <mxPoint x="510" y="260" as="sourcePoint" />
            <mxPoint x="560" y="210" as="targetPoint" />
            <Array as="points">
              <mxPoint x="560" y="260" />
              <mxPoint x="510" y="210" />
            </Array>
          </mxGeometry>
        </mxCell>
        <mxCell id="eB0HgLbgzuCoMFJ23nCr-42" value="END" style="ellipse;whiteSpace=wrap;html=1;fillColor=#f8cecc;strokeColor=#b85450;" vertex="1" parent="1">
          <mxGeometry x="710" y="420" width="80" height="40" as="geometry" />
        </mxCell>
      </root>
    </mxGraphModel>
  </diagram>
</mxfile>
